<svg xmlns="http://www.w3.org/2000/svg" width="18" height="18" viewBox="0 0 18 18">
  <path id="refresh_FILL0_wght400_GRAD0_opsz24" d="M169-782a8.686,8.686,0,0,1-6.384-2.616A8.686,8.686,0,0,1,160-791a8.686,8.686,0,0,1,2.616-6.384A8.686,8.686,0,0,1,169-800a8.908,8.908,0,0,1,3.712.8,8.575,8.575,0,0,1,3.037,2.292V-800H178v7.875h-7.875v-2.25h4.725a6.566,6.566,0,0,0-2.461-2.475,6.668,6.668,0,0,0-3.389-.9,6.51,6.51,0,0,0-4.781,1.969A6.509,6.509,0,0,0,162.25-791a6.509,6.509,0,0,0,1.969,4.781A6.509,6.509,0,0,0,169-784.25a6.6,6.6,0,0,0,3.909-1.237,6.535,6.535,0,0,0,2.447-3.263h2.362a8.883,8.883,0,0,1-3.206,4.866A8.729,8.729,0,0,1,169-782Z" transform="translate(-160 800)" fill="#805cfe"/>
</svg>
