<svg xmlns="http://www.w3.org/2000/svg" width="37.464" height="28.685" viewBox="0 0 37.464 28.685">
  <g id="Grupo_2027" data-name="Grupo 2027" transform="translate(-6463.11 -2995.011)">
    <path id="Trazado_289" data-name="Trazado 289" d="M-1312.913,571.268q-6.38,0-12.759,0c-.629,0-1.259.02-1.885-.023a4.279,4.279,0,0,1-3.1-1.633,4.38,4.38,0,0,1-.922-1.992,3.854,3.854,0,0,1-.061-.718c0-1.3.006-2.6.005-3.907,0-4.074,0-8.147-.013-12.221a4.484,4.484,0,0,1,.829-2.761,4.358,4.358,0,0,1,3.637-1.872c1.975-.017,3.95-.006,5.925,0a.26.26,0,0,0,.278-.177q.363-.778.745-1.547a2.824,2.824,0,0,1,.929-1.012,4.125,4.125,0,0,1,2.522-.816c1.635.016,3.27.012,4.9.013.975,0,1.95-.013,2.925-.008a3.972,3.972,0,0,1,3.071,1.426,4.523,4.523,0,0,1,.533.944c.185.361.351.733.535,1.095a.211.211,0,0,0,.162.077c.882,0,1.765,0,2.647,0,1.173,0,2.347-.029,3.519.008a4.28,4.28,0,0,1,3.039,1.365,4.367,4.367,0,0,1,1.253,3.143q0,6.545,0,13.091c0,1.056.022,2.112-.008,3.167a4.337,4.337,0,0,1-1.91,3.557,4.392,4.392,0,0,1-2.643.8q-6.759-.006-13.517-.006h-.647Zm-.018-2.345h3.589q5.351,0,10.7,0a2.064,2.064,0,0,0,1.617-.767,2.275,2.275,0,0,0,.5-1.548q-.007-5.953,0-11.906c0-1.376.006-2.753-.007-4.129a2.125,2.125,0,0,0-2.136-2.08c-2.191.018-4.382.008-6.574.007a2.486,2.486,0,0,1-.479-.033,1.087,1.087,0,0,1-.8-.566c-.344-.682-.68-1.368-1-2.064a1.465,1.465,0,0,0-1.392-.894c-.962-.029-1.924-.009-2.886-.009-1.709,0-3.419-.015-5.128.01a1.422,1.422,0,0,0-1.352.839c-.307.652-.633,1.295-.934,1.949a1.243,1.243,0,0,1-1.235.766h-6.759a1.987,1.987,0,0,0-1.309.475,2.165,2.165,0,0,0-.786,1.76c0,1.191-.007,2.382-.006,3.573q0,4.174.007,8.348c0,1.358-.005,2.716,0,4.074a2.127,2.127,0,0,0,2.211,2.2c.82,0,1.641,0,2.461,0Z" transform="translate(7794.755 2452.425)" fill="#fff"/>
    <path id="Trazado_290" data-name="Trazado 290" d="M-1066.619,730.446a8.2,8.2,0,0,1-8.078,8.2,8.22,8.22,0,0,1-8.312-8.011,8.212,8.212,0,0,1,8.2-8.383A8.2,8.2,0,0,1-1066.619,730.446Zm-14.041.007a5.845,5.845,0,0,0,5.9,5.846,5.85,5.85,0,0,0,5.788-5.7,5.862,5.862,0,0,0-5.845-6A5.861,5.861,0,0,0-1080.66,730.453Z" transform="translate(7556.649 2280.365)" fill="#fff"/>
  </g>
</svg>
