<svg xmlns="http://www.w3.org/2000/svg" width="18.717" height="17.547" viewBox="0 0 18.717 17.547">
  <path id="undo_FILL0_wght400_GRAD0_opsz24" d="M175.207-782.453v-2.34H166.9a4.754,4.754,0,0,1-3.2-1.17,3.7,3.7,0,0,1-1.36-2.925,3.7,3.7,0,0,1,1.36-2.924,4.754,4.754,0,0,1,3.2-1.17h7.37l-3.041,3.042,1.638,1.638,5.849-5.849L172.868-800l-1.638,1.638,3.041,3.042H166.9a7,7,0,0,0-4.869,1.842A5.942,5.942,0,0,0,160-788.887a5.943,5.943,0,0,0,2.033,4.592,7,7,0,0,0,4.869,1.842Z" transform="translate(-160 800)" fill="#d6d6d6"/>
</svg>
