<svg xmlns="http://www.w3.org/2000/svg" width="18.717" height="17.547" viewBox="0 0 18.717 17.547">
  <path id="undo_FILL0_wght400_GRAD0_opsz24" d="M163.509-782.453v-2.34h8.306a4.754,4.754,0,0,0,3.2-1.17,3.7,3.7,0,0,0,1.36-2.925,3.7,3.7,0,0,0-1.36-2.924,4.754,4.754,0,0,0-3.2-1.17h-7.37l3.042,3.042-1.638,1.638L160-794.151,165.849-800l1.638,1.638-3.042,3.042h7.37a7,7,0,0,1,4.869,1.842,5.942,5.942,0,0,1,2.033,4.591,5.943,5.943,0,0,1-2.033,4.592,7,7,0,0,1-4.869,1.842Z" transform="translate(-160 800)" fill="#d6d6d6"/>
</svg>
