<svg id="Capa_1" data-name="Capa 1" xmlns="http://www.w3.org/2000/svg" viewBox="0 0 1080 1080"><defs><style>.cls-1{fill:#fff;}</style></defs><circle class="cls-1" cx="337.87" cy="263.25" r="31.13" transform="translate(-82.06 178.89) rotate(-26.56)"/><path class="cls-1" d="M749.75,472.05c-40.61,0-42.86-44.37-50.39-65.43s-25.52-64.81-76.68-64.81-71.44,49-82.24,79.45-38.07,30.43-52.38,22.13-47.65-56.62-51.89-94.75c-3-27.07-18.81-42.82-38.36-42.82-28.62,0-40.57,24.75-36.88,42,2.58,12.36,5.9,23.31,44.26,46.73,39,23.83,39.39,60.6,49.86,83.36,11.07,24.27,26.93,35.33,48.87,35.33,23.86,0,42.56-11.69,50.68-34.78s12.76-43.26,20.14-56,20-31.9,47.94-31.9c33.9,0,45.19,27.26,51.05,42.23,6.75,17.3,11.29,79.74,60.89,79.74,44,0,46.66-66.94,46.66-66.94C780.51,451.65,772.24,472,749.75,472.05Z"/><path class="cls-1" d="M67,771.28a17.9,17.9,0,0,1-6.38-.89,7.37,7.37,0,0,1-3.69-4.16L1.13,640.82c-1.4-3.35-1.55-5.79-.44-7.37a16.33,16.33,0,0,1,5.5-4.32A9.72,9.72,0,0,1,13,627.8a7.83,7.83,0,0,1,4.76,5.2L67,751l47.94-114a29.3,29.3,0,0,1,4.47-7.74c1.77-2.18,4.94-2.07,9.48.29s6,4.21,5.64,6.68a21.84,21.84,0,0,1-2.36,7L76.85,766.45a7.63,7.63,0,0,1-3.68,3.87A15.25,15.25,0,0,1,67,771.28Z"/><path class="cls-1" d="M191.67,771.28a13,13,0,0,1-5-.89,4.85,4.85,0,0,1-2.81-3,16.5,16.5,0,0,1-.73-5.31V638.61a16.44,16.44,0,0,1,.73-5.49,4.92,4.92,0,0,1,2.81-2.81,13.22,13.22,0,0,1,5.35-.92,11.56,11.56,0,0,1,5.49,1.07,5.55,5.55,0,0,1,2.69,2.95,17.46,17.46,0,0,1,.74,5.79V762.39a16.2,16.2,0,0,1-.74,5.31,4.51,4.51,0,0,1-2.84,2.84A17.61,17.61,0,0,1,191.67,771.28Z"/><path class="cls-1" d="M258.17,633.26l26.7.59,41.28-.59a16.94,16.94,0,0,1,5.34.74,5,5,0,0,1,2.95,2.69,11.77,11.77,0,0,1,.89,4.87,14.83,14.83,0,0,1-.89,5.64,5,5,0,0,1-2.65,2.84,13.79,13.79,0,0,1-5.05.74l-41.87-.59-27.29.59a8.75,8.75,0,0,1-6.68-2.1,10.25,10.25,0,0,1-2-7.12,8.11,8.11,0,0,1,2.25-6.38A10.44,10.44,0,0,1,258.17,633.26Zm65.87,138a89.64,89.64,0,0,1-22.38-2.36,34.13,34.13,0,0,1-14.76-7.6,29.58,29.58,0,0,1-8.15-13.65,75.2,75.2,0,0,1-2.51-20.91V590.52A15.74,15.74,0,0,1,277,585a5.45,5.45,0,0,1,2.66-2.95,11,11,0,0,1,5.2-1,13.88,13.88,0,0,1,5.34.88,5.7,5.7,0,0,1,3,2.66,12,12,0,0,1,.92,5.35V727.35a51,51,0,0,0,1.62,14.39,16.14,16.14,0,0,0,4.94,8.29,17.7,17.7,0,0,0,9.19,3.4,111.85,111.85,0,0,0,13.94.74,17.2,17.2,0,0,1,5.79.73,6,6,0,0,1,3,2.55,14,14,0,0,1,0,10.51,5.74,5.74,0,0,1-3,2.69A16.21,16.21,0,0,1,324,771.28Z"/><path class="cls-1" d="M390.54,771.28a11.75,11.75,0,0,1-4.9-.89,4.86,4.86,0,0,1-2.66-3.13,17.11,17.11,0,0,1-.74-5.46V638.61a16.45,16.45,0,0,1,.74-5.79,4.36,4.36,0,0,1,2.66-2.66,14.56,14.56,0,0,1,5.2-.77,16,16,0,0,1,5.35.77,4.94,4.94,0,0,1,2.95,2.66,13.56,13.56,0,0,1,.88,5.5l-.29,12.17c2-3.36,4-6.38,5.94-9.08a38.79,38.79,0,0,1,7.11-7.37A31.13,31.13,0,0,1,423,629a55.94,55.94,0,0,1,15.3-1.77,39.22,39.22,0,0,1,16.16,3.29,27.42,27.42,0,0,1,5.79,3.24,14.08,14.08,0,0,1,3.69,3.69,7.45,7.45,0,0,1,1.18,3.69,8.89,8.89,0,0,1-3.29,7,9.72,9.72,0,0,1-6.23,2.84,9.06,9.06,0,0,1-4.87-1,31.42,31.42,0,0,1-3.43-2.55,14.85,14.85,0,0,0-5.2-2.51,40.75,40.75,0,0,0-10.84-1,29,29,0,0,0-9.78,1.92,36.57,36.57,0,0,0-10.25,5.79,29.89,29.89,0,0,0-8,10,32,32,0,0,0-3.14,14.75v86.09a15.21,15.21,0,0,1-.74,5.31,4.47,4.47,0,0,1-2.8,2.84A19,19,0,0,1,390.54,771.28Z"/><path class="cls-1" d="M525,771.28a13,13,0,0,1-5.05-.89,4.81,4.81,0,0,1-2.8-3,16.24,16.24,0,0,1-.74-5.31V638.61a16.19,16.19,0,0,1,.74-5.49,4.88,4.88,0,0,1,2.8-2.81,13.22,13.22,0,0,1,5.35-.92,11.56,11.56,0,0,1,5.49,1.07,5.47,5.47,0,0,1,2.69,2.95,17.46,17.46,0,0,1,.74,5.79V762.39a16.2,16.2,0,0,1-.74,5.31,4.51,4.51,0,0,1-2.84,2.84A17.61,17.61,0,0,1,525,771.28Z"/><path class="cls-1" d="M602.47,771a11.74,11.74,0,0,1-4.9-.88,5,5,0,0,1-2.7-3,16.47,16.47,0,0,1-.73-5.31V637.73a12.8,12.8,0,0,1,.73-4.91,5.26,5.26,0,0,1,2.84-2.51,12.19,12.19,0,0,1,5.06-.92,12.51,12.51,0,0,1,4,.59,7,7,0,0,1,2.55,1.51,5.42,5.42,0,0,1,1.32,2.36,12.79,12.79,0,0,1,.45,3.69l-.3,17.19a88.18,88.18,0,0,1,8.59-9.63,67.64,67.64,0,0,1,10.55-8.3A50,50,0,0,1,642.67,631a54.3,54.3,0,0,1,15.57-2.1,61.94,61.94,0,0,1,23.6,4.46,55.27,55.27,0,0,1,31.32,32.5,75.09,75.09,0,0,1,4.46,26.85v69.49a16.24,16.24,0,0,1-.74,5.31,4.56,4.56,0,0,1-2.69,2.84,15,15,0,0,1-5.16.73,13.56,13.56,0,0,1-5.5-.88,5.47,5.47,0,0,1-2.84-3,13.37,13.37,0,0,1-.88-5.31v-69.6a61.86,61.86,0,0,0-4.61-24.78,35.73,35.73,0,0,0-14.09-16.45,44.27,44.27,0,0,0-23.76-5.94,48.37,48.37,0,0,0-24.49,5.94,39.91,39.91,0,0,0-15.71,16.45,53,53,0,0,0-5.49,24.78V762.1a16.24,16.24,0,0,1-.74,5.31,4.55,4.55,0,0,1-2.84,2.84A17.46,17.46,0,0,1,602.47,771Z"/><path class="cls-1" d="M838.12,771.87a81.26,81.26,0,0,1-30-5.35,65.33,65.33,0,0,1-23.27-15.12,68.85,68.85,0,0,1-15-23.16,79.55,79.55,0,0,1-5.35-29.69,66.38,66.38,0,0,1,9.37-34.86,67.53,67.53,0,0,1,25.82-24.64A75.68,75.68,0,0,1,837.08,630a72.85,72.85,0,0,1,25.08,4.17,62.07,62.07,0,0,1,19.74,11.43,51.62,51.62,0,0,1,12.76,16.49,42.84,42.84,0,0,1,4.46,19c0,9.7-2.25,16.27-6.67,19.74a25.61,25.61,0,0,1-16.2,5.2h-93a40.57,40.57,0,0,0,7.89,26.85,55.81,55.81,0,0,0,21.21,17.07,60.17,60.17,0,0,0,25.52,5.94,102.84,102.84,0,0,0,15-.92,54.52,54.52,0,0,0,11.06-2.51,64.22,64.22,0,0,0,7.86-3.28c2-1,4-2.07,5.94-3.25a31.21,31.21,0,0,1,5.05-2.5,6.18,6.18,0,0,1,3.43-.3,3.68,3.68,0,0,1,2.8,1.77,13.83,13.83,0,0,1,2.07,3.69,12.15,12.15,0,0,1,.62,3.87c0,1.77-2.39,4.21-7.15,7.38a77.49,77.49,0,0,1-19.29,8.33A92.17,92.17,0,0,1,838.12,771.87ZM783.2,691.43h87.26a25.31,25.31,0,0,0,9.22-1.33c2.18-.89,3.25-3.69,3.25-8.45A29.08,29.08,0,0,0,877,663.84a43.31,43.31,0,0,0-16.3-13.06,53.11,53.11,0,0,0-23.46-5,62.59,62.59,0,0,0-27.29,5.94A49.46,49.46,0,0,0,790.17,668,38.4,38.4,0,0,0,783.2,691.43Z"/><path class="cls-1" d="M1071.7,771a8,8,0,0,1-6.24-2.06,15.12,15.12,0,0,1-2.36-7.75V741.59a62.06,62.06,0,0,1-54.92,29.69,64.53,64.53,0,0,1-26.55-5.5,67.64,67.64,0,0,1-21.69-15.27,71.47,71.47,0,0,1-14.53-22.72,74.28,74.28,0,0,1-5.2-28,70.83,70.83,0,0,1,41.57-64.87,63.5,63.5,0,0,1,26.4-5.5,71.35,71.35,0,0,1,23.9,3.69,55.46,55.46,0,0,1,17.38,9.81,87.32,87.32,0,0,1,13.64,14.53V640.79a14.77,14.77,0,0,1,1.92-8.6,10.42,10.42,0,0,1,11.88-1.47,6.61,6.61,0,0,1,2.39,3.69,23.12,23.12,0,0,1,.74,6.52V761.14a20.15,20.15,0,0,1-.74,5.93,5.26,5.26,0,0,1-2.54,3.29A11.57,11.57,0,0,1,1071.7,771Zm-59.94-16a46.93,46.93,0,0,0,25.38-7.12,52.37,52.37,0,0,0,18.44-19.44,56.94,56.94,0,0,0,6.82-28,57.73,57.73,0,0,0-7.15-29.24,51.74,51.74,0,0,0-18.7-19.15,49.09,49.09,0,0,0-25.23-6.82A53.77,53.77,0,0,0,983,652.52a50.88,50.88,0,0,0-18.7,19.73,60,60,0,0,0-6.68,28.8,57,57,0,0,0,6.68,27.74,47.9,47.9,0,0,0,19,19.29,57.25,57.25,0,0,0,28.51,6.86Z"/></svg>